<?xml version="1.0" encoding="UTF-8"?>
<svg xmlns="http://www.w3.org/2000/svg" xmlns:xlink="http://www.w3.org/1999/xlink" width="40px" height="40px" viewBox="0 0 40 22" version="1.1">
<g id="surface1">
<path style=" stroke:none;fill-rule:nonzero;fill:rgb(0%,0%,0%);fill-opacity:1;" d="M 12.109375 1.71875 C 10.511719 1.886719 9.167969 3.015625 8.746094 4.554688 L 8.644531 4.921875 L 8.644531 17.078125 L 8.746094 17.445312 C 9.117188 18.792969 10.203125 19.84375 11.601562 20.203125 L 11.976562 20.296875 L 17.910156 20.316406 C 24.117188 20.328125 24.511719 20.320312 25.097656 20.148438 C 26.179688 19.828125 27.15625 18.964844 27.589844 17.949219 C 27.859375 17.332031 27.867188 17.21875 27.867188 14.554688 C 27.867188 12.304688 27.863281 12.121094 27.792969 12.035156 C 27.699219 11.929688 27.488281 11.863281 27.34375 11.898438 C 27.222656 11.929688 26.230469 12.875 26.171875 13.011719 C 26.152344 13.066406 26.132812 13.925781 26.132812 14.921875 C 26.132812 16.929688 26.117188 17.089844 25.859375 17.527344 C 25.679688 17.828125 25.261719 18.230469 24.992188 18.363281 C 24.464844 18.617188 24.851562 18.605469 18.25 18.605469 C 12.496094 18.605469 12.1875 18.601562 11.929688 18.523438 C 11.265625 18.332031 10.699219 17.78125 10.460938 17.101562 C 10.382812 16.875 10.378906 16.609375 10.378906 11 L 10.378906 5.132812 L 10.480469 4.851562 C 10.65625 4.34375 10.988281 3.957031 11.464844 3.671875 C 11.976562 3.378906 11.542969 3.394531 18.238281 3.394531 C 22.226562 3.394531 24.355469 3.410156 24.488281 3.441406 C 24.59375 3.464844 24.738281 3.472656 24.796875 3.460938 C 24.9375 3.425781 25.714844 2.691406 25.769531 2.539062 C 25.816406 2.402344 25.761719 2.1875 25.648438 2.089844 C 25.503906 1.960938 24.828125 1.765625 24.351562 1.71875 C 23.832031 1.667969 12.609375 1.667969 12.109375 1.71875 Z M 12.109375 1.71875 "/>
<path style=" stroke:none;fill-rule:nonzero;fill:rgb(0%,0%,0%);fill-opacity:1;" d="M 28.601562 2.566406 C 28.226562 2.648438 28.234375 2.636719 23.667969 7.050781 L 19.132812 11.429688 L 17.3125 9.664062 C 16.308594 8.691406 15.410156 7.851562 15.3125 7.785156 C 15.179688 7.703125 15.058594 7.675781 14.8125 7.65625 C 14.332031 7.625 14.253906 7.679688 13.191406 8.710938 C 12.3125 9.570312 12.269531 9.613281 12.195312 9.859375 C 12.101562 10.183594 12.152344 10.480469 12.351562 10.75 C 12.421875 10.855469 13.828125 12.234375 15.476562 13.824219 C 18.71875 16.957031 18.644531 16.890625 19.132812 16.890625 C 19.636719 16.890625 19.316406 17.179688 25.492188 11.203125 C 29.425781 7.398438 31.214844 5.640625 31.269531 5.523438 C 31.382812 5.292969 31.378906 4.851562 31.265625 4.625 C 31.160156 4.410156 29.488281 2.785156 29.257812 2.671875 C 29.078125 2.585938 28.75 2.53125 28.601562 2.566406 Z M 28.601562 2.566406 "/>
</g>
</svg>
