<?xml version="1.0" encoding="UTF-8"?>
<svg xmlns="http://www.w3.org/2000/svg" xmlns:xlink="http://www.w3.org/1999/xlink" width="40px" height="40px" viewBox="0 0 40 40" version="1.1">
<g id="surface1">
<path style=" stroke:none;fill-rule:nonzero;fill:rgb(0%,0%,0%);fill-opacity:1;" d="M 2.472656 2.472656 L 8.742188 2.472656 L 8.742188 0 L 0 0 L 0 8.742188 L 2.472656 8.742188 Z M 2.472656 2.472656 "/>
<path style=" stroke:none;fill-rule:nonzero;fill:rgb(0%,0%,0%);fill-opacity:1;" d="M 31.257812 0 L 31.257812 2.472656 L 37.527344 2.472656 L 37.527344 8.742188 L 40 8.742188 L 40 0 Z M 31.257812 0 "/>
<path style=" stroke:none;fill-rule:nonzero;fill:rgb(0%,0%,0%);fill-opacity:1;" d="M 16.261719 0 L 23.765625 0 L 23.765625 2.472656 L 16.261719 2.472656 Z M 16.261719 0 "/>
<path style=" stroke:none;fill-rule:nonzero;fill:rgb(0%,0%,0%);fill-opacity:1;" d="M 16.261719 37.527344 L 23.765625 37.527344 L 23.765625 40 L 16.261719 40 Z M 16.261719 37.527344 "/>
<path style=" stroke:none;fill-rule:nonzero;fill:rgb(0%,0%,0%);fill-opacity:1;" d="M 37.527344 37.527344 L 31.257812 37.527344 L 31.257812 40 L 40 40 L 40 31.257812 L 37.527344 31.257812 Z M 37.527344 37.527344 "/>
<path style=" stroke:none;fill-rule:nonzero;fill:rgb(0%,0%,0%);fill-opacity:1;" d="M 37.527344 16.246094 L 40 16.246094 L 40 23.753906 L 37.527344 23.753906 Z M 37.527344 16.246094 "/>
<path style=" stroke:none;fill-rule:nonzero;fill:rgb(0%,0%,0%);fill-opacity:1;" d="M 0 16.246094 L 2.472656 16.246094 L 2.472656 23.753906 L 0 23.753906 Z M 0 16.246094 "/>
<path style=" stroke:none;fill-rule:nonzero;fill:rgb(0%,0%,0%);fill-opacity:1;" d="M 22.636719 22.320312 L 17.679688 17.363281 L 20.871094 14.171875 L 25.828125 19.128906 Z M 22.636719 22.320312 "/>
<path style=" stroke:none;fill-rule:nonzero;fill:rgb(0%,0%,0%);fill-opacity:1;" d="M 2.0625 37.9375 L 7.707031 36.289062 L 3.710938 32.292969 Z M 2.0625 37.9375 "/>
<path style=" stroke:none;fill-rule:nonzero;fill:rgb(0%,0%,0%);fill-opacity:1;" d="M 4.980469 30.0625 L 15.929688 19.113281 L 20.886719 24.070312 L 9.9375 35.019531 Z M 4.980469 30.0625 "/>
</g>
</svg>
