<?xml version="1.0" encoding="UTF-8"?>
<svg xmlns="http://www.w3.org/2000/svg" xmlns:xlink="http://www.w3.org/1999/xlink" width="40px" height="40px" viewBox="0 0 40 40" version="1.1">
<g id="surface1">
<path style=" stroke:none;fill-rule:nonzero;fill:rgb(0.392157%,0%,0.784314%);fill-opacity:1;" d="M 19.890625 0 C 8.847656 0.0585938 -0.0585938 9.0625 0 20.105469 C 0.0585938 31.152344 9.066406 40.058594 20.105469 40 C 31.15625 39.941406 40.058594 30.9375 40 19.894531 C 39.9375 8.84375 30.941406 -0.0585938 19.890625 0 Z M 20.089844 36.738281 C 10.84375 36.785156 3.320312 29.335938 3.265625 20.089844 C 3.21875 10.847656 10.664062 3.308594 19.910156 3.257812 C 29.15625 3.207031 36.691406 10.667969 36.742188 19.90625 C 36.792969 29.15625 29.335938 36.691406 20.089844 36.738281 Z M 23.054688 28.75 L 22.972656 13.800781 L 15.253906 13.851562 L 15.269531 17.121094 L 17.367188 17.109375 L 17.425781 28.785156 L 15.207031 28.792969 L 15.222656 31.917969 L 24.90625 31.863281 L 24.886719 28.742188 Z M 20.113281 11.59375 C 22 11.585938 23.136719 10.324219 23.128906 8.773438 C 23.078125 7.183594 21.96875 5.96875 20.152344 5.976562 C 18.34375 5.988281 17.164062 7.214844 17.171875 8.808594 C 17.179688 10.355469 18.332031 11.609375 20.113281 11.59375 Z M 20.113281 11.59375 "/>
</g>
</svg>
