<?xml version="1.0" encoding="UTF-8"?>
<svg xmlns="http://www.w3.org/2000/svg" xmlns:xlink="http://www.w3.org/1999/xlink" width="40px" height="40px" viewBox="0 0 40 40" version="1.1">
<g id="surface1">
<path style=" stroke:none;fill-rule:nonzero;fill:rgb(0%,0%,0%);fill-opacity:1;" d="M 11.191406 0.179688 C 6.441406 0.925781 2.382812 4.339844 0.800781 8.878906 C -0.0546875 11.335938 -0.179688 14.128906 0.445312 16.65625 C 0.585938 17.222656 1.085938 18.46875 1.546875 19.394531 C 2.242188 20.78125 2.652344 21.351562 3.914062 22.597656 C 5.660156 24.339844 6.851562 25.089844 9.019531 25.855469 C 10.320312 26.300781 10.941406 26.40625 12.722656 26.476562 C 15.375 26.582031 17.136719 26.191406 19.414062 25.035156 L 20.960938 24.234375 L 28.664062 31.957031 C 37.046875 40.339844 36.992188 40.300781 38.417969 39.875 C 39.644531 39.519531 40.285156 38.21875 39.875 36.976562 C 39.734375 36.566406 37.382812 34.09375 31.976562 28.683594 L 24.253906 20.960938 L 25.035156 19.429688 C 26.191406 17.117188 26.566406 15.375 26.476562 12.738281 C 26.335938 9.074219 25.25 6.566406 22.597656 3.914062 C 21.351562 2.652344 20.78125 2.242188 19.394531 1.546875 C 18.46875 1.085938 17.222656 0.585938 16.636719 0.445312 C 15.320312 0.105469 12.527344 -0.0351562 11.191406 0.179688 Z M 15.730469 3.558594 C 17.507812 4.003906 18.664062 4.644531 20.035156 5.925781 C 21.351562 7.152344 22.136719 8.328125 22.703125 9.894531 C 23.398438 11.78125 23.328125 11.902344 22.027344 10.980469 C 20.730469 10.054688 18.453125 8.878906 17.171875 8.488281 C 12.898438 7.136719 8.824219 7.953125 4.464844 10.996094 L 3.328125 11.796875 L 3.453125 11.101562 C 3.523438 10.730469 3.898438 9.734375 4.289062 8.914062 C 6.316406 4.644531 11.140625 2.382812 15.730469 3.558594 Z M 16.386719 9.589844 C 17.632812 9.980469 18.007812 10.265625 18.328125 11.121094 C 18.949219 12.757812 18.878906 14.199219 18.132812 15.78125 C 17.792969 16.496094 17.667969 16.582031 16.496094 16.941406 C 14.679688 17.527344 11.832031 17.507812 10 16.941406 C 8.699219 16.53125 8.683594 16.53125 8.21875 15.515625 C 7.5625 14.074219 7.5625 12.382812 8.238281 11.015625 C 8.71875 10.019531 8.71875 10.019531 10.019531 9.644531 C 10.710938 9.429688 11.496094 9.234375 11.742188 9.179688 C 12.652344 9.003906 15.25 9.234375 16.386719 9.589844 Z M 7.207031 17.1875 C 11.28125 19.164062 15.230469 19.164062 19.304688 17.1875 C 20.195312 16.761719 21.421875 16.03125 22.046875 15.570312 L 23.183594 14.734375 L 23.058594 15.5 C 23.007812 15.925781 22.632812 16.941406 22.222656 17.738281 C 19.304688 23.738281 11.371094 25.179688 6.511719 20.621094 C 5.140625 19.339844 4.394531 18.21875 3.808594 16.601562 C 3.148438 14.714844 3.203125 14.644531 4.484375 15.585938 C 5.105469 16.03125 6.316406 16.761719 7.207031 17.1875 Z M 7.207031 17.1875 "/>
<path style=" stroke:none;fill-rule:nonzero;fill:rgb(0%,0%,0%);fill-opacity:1;" d="M 11.851562 11.015625 C 10.660156 11.816406 10.265625 13.417969 10.960938 14.609375 C 11.941406 16.261719 14.484375 16.316406 15.5 14.714844 C 15.78125 14.269531 15.835938 13.914062 15.78125 13.113281 C 15.730469 12.207031 15.640625 12.011719 15.070312 11.441406 C 14.5 10.871094 14.304688 10.78125 13.398438 10.730469 C 12.597656 10.675781 12.261719 10.730469 11.851562 11.015625 Z M 11.851562 11.015625 "/>
</g>
</svg>
